<mxfile host="app.diagrams.net" modified="2023-09-20T12:46:45.275Z" agent="Mozilla/5.0 (Windows NT 10.0; Win64; x64) AppleWebKit/537.36 (KHTML, like Gecko) Chrome/116.0.0.0 Safari/537.36 OPR/102.0.0.0" etag="rCe7Sv_U8v-YPPdPdp0K" version="21.7.5" type="google">
  <diagram name="Página-1" id="SZbrt6W7kSed7yBIBF_c">
    <mxGraphModel grid="1" page="1" gridSize="10" guides="1" tooltips="1" connect="1" arrows="1" fold="1" pageScale="1" pageWidth="2500" pageHeight="2500" math="0" shadow="0">
      <root>
        <mxCell id="0" />
        <mxCell id="1" parent="0" />
        <mxCell id="m9rpBUw8iEtiCOr8ePLz-1" value="" style="rounded=0;whiteSpace=wrap;html=1;" vertex="1" parent="1">
          <mxGeometry x="330" y="450" width="120" height="60" as="geometry" />
        </mxCell>
        <mxCell id="m9rpBUw8iEtiCOr8ePLz-5" value="" style="edgeStyle=orthogonalEdgeStyle;rounded=0;orthogonalLoop=1;jettySize=auto;html=1;" edge="1" parent="1" source="m9rpBUw8iEtiCOr8ePLz-2" target="m9rpBUw8iEtiCOr8ePLz-4">
          <mxGeometry relative="1" as="geometry" />
        </mxCell>
        <mxCell id="m9rpBUw8iEtiCOr8ePLz-2" value="&lt;font style=&quot;font-size: 20px;&quot;&gt;Farmaceutico&lt;br&gt;&lt;/font&gt;" style="rounded=0;whiteSpace=wrap;html=1;" vertex="1" parent="1">
          <mxGeometry x="330" y="450" width="120" height="60" as="geometry" />
        </mxCell>
        <mxCell id="m9rpBUw8iEtiCOr8ePLz-3" value="" style="endArrow=none;html=1;rounded=0;" edge="1" parent="1">
          <mxGeometry width="50" height="50" relative="1" as="geometry">
            <mxPoint x="389.5" y="450" as="sourcePoint" />
            <mxPoint x="389.5" y="350" as="targetPoint" />
          </mxGeometry>
        </mxCell>
        <mxCell id="m9rpBUw8iEtiCOr8ePLz-4" value="" style="rhombus;whiteSpace=wrap;html=1;" vertex="1" parent="1">
          <mxGeometry x="370" y="310" width="40" height="40" as="geometry" />
        </mxCell>
        <mxCell id="m9rpBUw8iEtiCOr8ePLz-6" value="&lt;font style=&quot;font-size: 20px;&quot;&gt;N&lt;/font&gt;" style="text;strokeColor=none;align=center;fillColor=none;html=1;verticalAlign=middle;whiteSpace=wrap;rounded=0;" vertex="1" parent="1">
          <mxGeometry x="380" y="400" width="70" height="50" as="geometry" />
        </mxCell>
        <mxCell id="m9rpBUw8iEtiCOr8ePLz-8" value="&lt;span style=&quot;font-size: 20px;&quot;&gt;1&lt;/span&gt;" style="text;strokeColor=none;align=center;fillColor=none;html=1;verticalAlign=middle;whiteSpace=wrap;rounded=0;" vertex="1" parent="1">
          <mxGeometry x="380" y="250" width="70" height="50" as="geometry" />
        </mxCell>
        <mxCell id="m9rpBUw8iEtiCOr8ePLz-9" value="" style="endArrow=none;html=1;rounded=0;" edge="1" parent="1">
          <mxGeometry width="50" height="50" relative="1" as="geometry">
            <mxPoint x="389.5" y="310" as="sourcePoint" />
            <mxPoint x="389.5" y="210" as="targetPoint" />
          </mxGeometry>
        </mxCell>
        <mxCell id="m9rpBUw8iEtiCOr8ePLz-11" value="&lt;font style=&quot;font-size: 20px;&quot;&gt;Farmacia&lt;br&gt;&lt;/font&gt;" style="rounded=0;whiteSpace=wrap;html=1;" vertex="1" parent="1">
          <mxGeometry x="330" y="150" width="120" height="60" as="geometry" />
        </mxCell>
        <mxCell id="m9rpBUw8iEtiCOr8ePLz-17" value="" style="endArrow=none;html=1;rounded=0;entryX=0.5;entryY=1;entryDx=0;entryDy=0;" edge="1" parent="1" target="m9rpBUw8iEtiCOr8ePLz-18">
          <mxGeometry width="50" height="50" relative="1" as="geometry">
            <mxPoint x="350" y="150" as="sourcePoint" />
            <mxPoint x="350" y="120" as="targetPoint" />
          </mxGeometry>
        </mxCell>
        <mxCell id="m9rpBUw8iEtiCOr8ePLz-18" value="&lt;span style=&quot;font-size: 15px;&quot;&gt;&lt;u&gt;CNPJ&lt;/u&gt;&lt;/span&gt;" style="ellipse;whiteSpace=wrap;html=1;" vertex="1" parent="1">
          <mxGeometry x="310" y="10" width="80" height="60" as="geometry" />
        </mxCell>
        <mxCell id="m9rpBUw8iEtiCOr8ePLz-20" value="" style="endArrow=none;html=1;rounded=0;" edge="1" parent="1" target="m9rpBUw8iEtiCOr8ePLz-21">
          <mxGeometry width="50" height="50" relative="1" as="geometry">
            <mxPoint x="340" y="450" as="sourcePoint" />
            <mxPoint x="340" y="410" as="targetPoint" />
          </mxGeometry>
        </mxCell>
        <mxCell id="m9rpBUw8iEtiCOr8ePLz-21" value="CPF" style="ellipse;whiteSpace=wrap;html=1;" vertex="1" parent="1">
          <mxGeometry x="320" y="390" width="40" height="30" as="geometry" />
        </mxCell>
        <mxCell id="m9rpBUw8iEtiCOr8ePLz-24" value="" style="endArrow=none;html=1;rounded=0;" edge="1" parent="1">
          <mxGeometry width="50" height="50" relative="1" as="geometry">
            <mxPoint x="359.5" y="560" as="sourcePoint" />
            <mxPoint x="359.5" y="510" as="targetPoint" />
          </mxGeometry>
        </mxCell>
        <mxCell id="m9rpBUw8iEtiCOr8ePLz-25" value="&lt;font style=&quot;font-size: 14px;&quot;&gt;Contrato&lt;/font&gt;" style="ellipse;whiteSpace=wrap;html=1;" vertex="1" parent="1">
          <mxGeometry x="390" y="557.5" width="50" height="42.5" as="geometry" />
        </mxCell>
        <mxCell id="m9rpBUw8iEtiCOr8ePLz-26" value="&lt;font style=&quot;font-size: 15px;&quot;&gt;&lt;u&gt;Login&lt;/u&gt;&lt;/font&gt;" style="ellipse;whiteSpace=wrap;html=1;" vertex="1" parent="1">
          <mxGeometry x="340" y="560" width="40" height="30" as="geometry" />
        </mxCell>
        <mxCell id="m9rpBUw8iEtiCOr8ePLz-27" value="" style="endArrow=none;html=1;rounded=0;" edge="1" parent="1">
          <mxGeometry width="50" height="50" relative="1" as="geometry">
            <mxPoint x="409.5" y="557.5" as="sourcePoint" />
            <mxPoint x="409.5" y="507.5" as="targetPoint" />
          </mxGeometry>
        </mxCell>
        <mxCell id="m9rpBUw8iEtiCOr8ePLz-30" value="" style="endArrow=none;html=1;rounded=0;" edge="1" parent="1">
          <mxGeometry width="50" height="50" relative="1" as="geometry">
            <mxPoint x="430" y="450" as="sourcePoint" />
            <mxPoint x="430" y="410" as="targetPoint" />
          </mxGeometry>
        </mxCell>
        <mxCell id="m9rpBUw8iEtiCOr8ePLz-31" value="CRM" style="ellipse;whiteSpace=wrap;html=1;" vertex="1" parent="1">
          <mxGeometry x="414" y="380" width="40" height="30" as="geometry" />
        </mxCell>
        <mxCell id="m9rpBUw8iEtiCOr8ePLz-32" value="" style="endArrow=none;html=1;rounded=0;" edge="1" parent="1">
          <mxGeometry width="50" height="50" relative="1" as="geometry">
            <mxPoint x="450" y="460" as="sourcePoint" />
            <mxPoint x="490" y="460" as="targetPoint" />
          </mxGeometry>
        </mxCell>
        <mxCell id="m9rpBUw8iEtiCOr8ePLz-34" value="Email" style="ellipse;whiteSpace=wrap;html=1;" vertex="1" parent="1">
          <mxGeometry x="480" y="440" width="40" height="30" as="geometry" />
        </mxCell>
        <mxCell id="m9rpBUw8iEtiCOr8ePLz-52" value="" style="edgeStyle=orthogonalEdgeStyle;rounded=0;orthogonalLoop=1;jettySize=auto;html=1;" edge="1" parent="1" source="m9rpBUw8iEtiCOr8ePLz-42" target="m9rpBUw8iEtiCOr8ePLz-47">
          <mxGeometry relative="1" as="geometry" />
        </mxCell>
        <mxCell id="m9rpBUw8iEtiCOr8ePLz-42" value="&lt;font style=&quot;font-size: 20px;&quot;&gt;Clinica&lt;br&gt;&lt;/font&gt;" style="rounded=0;whiteSpace=wrap;html=1;" vertex="1" parent="1">
          <mxGeometry x="270" y="660" width="120" height="60" as="geometry" />
        </mxCell>
        <mxCell id="m9rpBUw8iEtiCOr8ePLz-43" value="" style="endArrow=none;html=1;rounded=0;" edge="1" parent="1">
          <mxGeometry width="50" height="50" relative="1" as="geometry">
            <mxPoint x="279.5" y="660" as="sourcePoint" />
            <mxPoint x="279.5" y="630" as="targetPoint" />
          </mxGeometry>
        </mxCell>
        <mxCell id="m9rpBUw8iEtiCOr8ePLz-45" value="Foto" style="ellipse;whiteSpace=wrap;html=1;" vertex="1" parent="1">
          <mxGeometry x="260" y="600" width="40" height="30" as="geometry" />
        </mxCell>
        <mxCell id="m9rpBUw8iEtiCOr8ePLz-47" value="Nome" style="ellipse;whiteSpace=wrap;html=1;" vertex="1" parent="1">
          <mxGeometry x="310" y="600" width="40" height="30" as="geometry" />
        </mxCell>
        <mxCell id="m9rpBUw8iEtiCOr8ePLz-50" value="" style="endArrow=none;html=1;rounded=0;verticalAlign=middle;labelBorderColor=default;" edge="1" parent="1">
          <mxGeometry width="50" height="50" relative="1" as="geometry">
            <mxPoint x="330" y="660" as="sourcePoint" />
            <mxPoint x="330" y="630" as="targetPoint" />
            <Array as="points" />
          </mxGeometry>
        </mxCell>
        <mxCell id="m9rpBUw8iEtiCOr8ePLz-51" value="Endereço" style="ellipse;whiteSpace=wrap;html=1;" vertex="1" parent="1">
          <mxGeometry x="360" y="750" width="50" height="40" as="geometry" />
        </mxCell>
        <mxCell id="m9rpBUw8iEtiCOr8ePLz-53" value="" style="endArrow=none;html=1;rounded=0;" edge="1" parent="1">
          <mxGeometry width="50" height="50" relative="1" as="geometry">
            <mxPoint x="379" y="750" as="sourcePoint" />
            <mxPoint x="379" y="720" as="targetPoint" />
          </mxGeometry>
        </mxCell>
        <mxCell id="m9rpBUw8iEtiCOr8ePLz-57" value="" style="endArrow=none;html=1;rounded=0;" edge="1" parent="1">
          <mxGeometry width="50" height="50" relative="1" as="geometry">
            <mxPoint x="279.5" y="750" as="sourcePoint" />
            <mxPoint x="279.5" y="720" as="targetPoint" />
          </mxGeometry>
        </mxCell>
        <mxCell id="m9rpBUw8iEtiCOr8ePLz-58" value="&lt;u&gt;CNPJ&lt;/u&gt;" style="ellipse;whiteSpace=wrap;html=1;" vertex="1" parent="1">
          <mxGeometry x="260" y="750" width="40" height="30" as="geometry" />
        </mxCell>
        <mxCell id="m9rpBUw8iEtiCOr8ePLz-87" value="" style="endArrow=none;html=1;rounded=0;" edge="1" parent="1" source="m9rpBUw8iEtiCOr8ePLz-88">
          <mxGeometry width="50" height="50" relative="1" as="geometry">
            <mxPoint x="450" y="160" as="sourcePoint" />
            <mxPoint x="860" y="160" as="targetPoint" />
          </mxGeometry>
        </mxCell>
        <mxCell id="m9rpBUw8iEtiCOr8ePLz-89" value="" style="endArrow=none;html=1;rounded=0;" edge="1" parent="1" target="m9rpBUw8iEtiCOr8ePLz-88">
          <mxGeometry width="50" height="50" relative="1" as="geometry">
            <mxPoint x="450" y="160" as="sourcePoint" />
            <mxPoint x="860" y="160" as="targetPoint" />
          </mxGeometry>
        </mxCell>
        <mxCell id="m9rpBUw8iEtiCOr8ePLz-88" value="" style="rhombus;whiteSpace=wrap;html=1;" vertex="1" parent="1">
          <mxGeometry x="660" y="140" width="40" height="40" as="geometry" />
        </mxCell>
        <mxCell id="m9rpBUw8iEtiCOr8ePLz-91" value="&lt;span style=&quot;color: rgb(0, 0, 0); font-family: Helvetica; font-size: 20px; font-style: normal; font-variant-ligatures: normal; font-variant-caps: normal; font-weight: 400; letter-spacing: normal; orphans: 2; text-align: center; text-indent: 0px; text-transform: none; widows: 2; word-spacing: 0px; -webkit-text-stroke-width: 0px; background-color: rgb(251, 251, 251); text-decoration-thickness: initial; text-decoration-style: initial; text-decoration-color: initial; float: none; display: inline !important;&quot;&gt;N&lt;/span&gt;" style="text;whiteSpace=wrap;html=1;" vertex="1" parent="1">
          <mxGeometry x="640" y="120" width="50" height="50" as="geometry" />
        </mxCell>
        <mxCell id="m9rpBUw8iEtiCOr8ePLz-92" value="&lt;span style=&quot;color: rgb(0, 0, 0); font-family: Helvetica; font-size: 20px; font-style: normal; font-variant-ligatures: normal; font-variant-caps: normal; font-weight: 400; letter-spacing: normal; orphans: 2; text-align: center; text-indent: 0px; text-transform: none; widows: 2; word-spacing: 0px; -webkit-text-stroke-width: 0px; background-color: rgb(251, 251, 251); text-decoration-thickness: initial; text-decoration-style: initial; text-decoration-color: initial; float: none; display: inline !important;&quot;&gt;N&lt;/span&gt;" style="text;whiteSpace=wrap;html=1;" vertex="1" parent="1">
          <mxGeometry x="700" y="120" width="50" height="50" as="geometry" />
        </mxCell>
        <mxCell id="m9rpBUw8iEtiCOr8ePLz-93" value="&lt;font style=&quot;font-size: 20px;&quot;&gt;Medicamento&lt;br&gt;&lt;/font&gt;" style="rounded=0;whiteSpace=wrap;html=1;" vertex="1" parent="1">
          <mxGeometry x="860" y="130" width="120" height="60" as="geometry" />
        </mxCell>
        <mxCell id="m9rpBUw8iEtiCOr8ePLz-94" value="" style="endArrow=none;html=1;rounded=0;" edge="1" parent="1">
          <mxGeometry width="50" height="50" relative="1" as="geometry">
            <mxPoint x="870" y="130" as="sourcePoint" />
            <mxPoint x="870" y="100" as="targetPoint" />
          </mxGeometry>
        </mxCell>
        <mxCell id="m9rpBUw8iEtiCOr8ePLz-96" value="&lt;span style=&quot;font-size: 15px;&quot;&gt;&lt;u&gt;Número CAS&lt;/u&gt;&lt;/span&gt;" style="ellipse;whiteSpace=wrap;html=1;" vertex="1" parent="1">
          <mxGeometry x="840" y="50" width="60" height="50" as="geometry" />
        </mxCell>
        <mxCell id="m9rpBUw8iEtiCOr8ePLz-97" value="" style="endArrow=none;html=1;rounded=0;" edge="1" parent="1">
          <mxGeometry width="50" height="50" relative="1" as="geometry">
            <mxPoint x="940" y="130" as="sourcePoint" />
            <mxPoint x="940" y="100" as="targetPoint" />
          </mxGeometry>
        </mxCell>
        <mxCell id="m9rpBUw8iEtiCOr8ePLz-100" value="Idade" style="ellipse;whiteSpace=wrap;html=1;" vertex="1" parent="1">
          <mxGeometry x="920" y="70" width="40" height="30" as="geometry" />
        </mxCell>
        <mxCell id="m9rpBUw8iEtiCOr8ePLz-101" value="&lt;span style=&quot;font-size: 15px;&quot;&gt;Quantidade&lt;/span&gt;" style="ellipse;whiteSpace=wrap;html=1;" vertex="1" parent="1">
          <mxGeometry x="870" width="80" height="50" as="geometry" />
        </mxCell>
        <mxCell id="m9rpBUw8iEtiCOr8ePLz-102" value="" style="endArrow=none;html=1;rounded=0;entryX=0.5;entryY=1;entryDx=0;entryDy=0;" edge="1" parent="1" target="m9rpBUw8iEtiCOr8ePLz-101">
          <mxGeometry width="50" height="50" relative="1" as="geometry">
            <mxPoint x="910" y="130" as="sourcePoint" />
            <mxPoint x="910" y="60" as="targetPoint" />
          </mxGeometry>
        </mxCell>
        <mxCell id="m9rpBUw8iEtiCOr8ePLz-103" value="" style="endArrow=none;html=1;rounded=0;" edge="1" parent="1">
          <mxGeometry width="50" height="50" relative="1" as="geometry">
            <mxPoint x="980" y="140" as="sourcePoint" />
            <mxPoint x="1020" y="140" as="targetPoint" />
          </mxGeometry>
        </mxCell>
        <mxCell id="m9rpBUw8iEtiCOr8ePLz-104" value="&lt;span style=&quot;font-size: 15px;&quot;&gt;Nome&lt;/span&gt;" style="ellipse;whiteSpace=wrap;html=1;" vertex="1" parent="1">
          <mxGeometry x="1020" y="120" width="50" height="40" as="geometry" />
        </mxCell>
        <mxCell id="m9rpBUw8iEtiCOr8ePLz-105" value="" style="endArrow=none;html=1;rounded=0;" edge="1" parent="1">
          <mxGeometry width="50" height="50" relative="1" as="geometry">
            <mxPoint x="880" y="220" as="sourcePoint" />
            <mxPoint x="880" y="190" as="targetPoint" />
          </mxGeometry>
        </mxCell>
        <mxCell id="m9rpBUw8iEtiCOr8ePLz-106" value="" style="endArrow=none;html=1;rounded=0;" edge="1" parent="1">
          <mxGeometry width="50" height="50" relative="1" as="geometry">
            <mxPoint x="959" y="220" as="sourcePoint" />
            <mxPoint x="959" y="190" as="targetPoint" />
          </mxGeometry>
        </mxCell>
        <mxCell id="m9rpBUw8iEtiCOr8ePLz-107" value="Uso" style="ellipse;whiteSpace=wrap;html=1;" vertex="1" parent="1">
          <mxGeometry x="860" y="220" width="40" height="30" as="geometry" />
        </mxCell>
        <mxCell id="m9rpBUw8iEtiCOr8ePLz-108" value="Foto" style="ellipse;whiteSpace=wrap;html=1;" vertex="1" parent="1">
          <mxGeometry x="940" y="220" width="40" height="30" as="geometry" />
        </mxCell>
        <mxCell id="m9rpBUw8iEtiCOr8ePLz-114" value="" style="endArrow=none;html=1;rounded=0;" edge="1" parent="1">
          <mxGeometry width="50" height="50" relative="1" as="geometry">
            <mxPoint x="640" y="660" as="sourcePoint" />
            <mxPoint x="640" y="607.5" as="targetPoint" />
          </mxGeometry>
        </mxCell>
        <mxCell id="m9rpBUw8iEtiCOr8ePLz-115" value="" style="endArrow=none;html=1;rounded=0;" edge="1" parent="1" source="m9rpBUw8iEtiCOr8ePLz-123">
          <mxGeometry width="50" height="50" relative="1" as="geometry">
            <mxPoint x="390" y="675" as="sourcePoint" />
            <mxPoint x="620" y="675" as="targetPoint" />
          </mxGeometry>
        </mxCell>
        <mxCell id="m9rpBUw8iEtiCOr8ePLz-124" value="" style="endArrow=none;html=1;rounded=0;" edge="1" parent="1" target="m9rpBUw8iEtiCOr8ePLz-123">
          <mxGeometry width="50" height="50" relative="1" as="geometry">
            <mxPoint x="390" y="675" as="sourcePoint" />
            <mxPoint x="620" y="675" as="targetPoint" />
          </mxGeometry>
        </mxCell>
        <mxCell id="m9rpBUw8iEtiCOr8ePLz-123" value="" style="rhombus;whiteSpace=wrap;html=1;" vertex="1" parent="1">
          <mxGeometry x="500" y="650" width="40" height="50" as="geometry" />
        </mxCell>
        <mxCell id="m9rpBUw8iEtiCOr8ePLz-126" value="&lt;font style=&quot;font-size: 20px;&quot;&gt;Paciente&lt;br&gt;&lt;/font&gt;" style="rounded=0;whiteSpace=wrap;html=1;" vertex="1" parent="1">
          <mxGeometry x="620" y="650" width="120" height="60" as="geometry" />
        </mxCell>
        <mxCell id="m9rpBUw8iEtiCOr8ePLz-127" value="&lt;span style=&quot;color: rgb(0, 0, 0); font-family: Helvetica; font-size: 20px; font-style: normal; font-variant-ligatures: normal; font-variant-caps: normal; font-weight: 400; letter-spacing: normal; orphans: 2; text-align: center; text-indent: 0px; text-transform: none; widows: 2; word-spacing: 0px; -webkit-text-stroke-width: 0px; background-color: rgb(251, 251, 251); text-decoration-thickness: initial; text-decoration-style: initial; text-decoration-color: initial; float: none; display: inline !important;&quot;&gt;N&lt;/span&gt;" style="text;whiteSpace=wrap;html=1;" vertex="1" parent="1">
          <mxGeometry x="480" y="640" width="20" height="50" as="geometry" />
        </mxCell>
        <mxCell id="m9rpBUw8iEtiCOr8ePLz-128" value="&lt;span style=&quot;color: rgb(0, 0, 0); font-family: Helvetica; font-size: 20px; font-style: normal; font-variant-ligatures: normal; font-variant-caps: normal; font-weight: 400; letter-spacing: normal; orphans: 2; text-align: center; text-indent: 0px; text-transform: none; widows: 2; word-spacing: 0px; -webkit-text-stroke-width: 0px; background-color: rgb(251, 251, 251); text-decoration-thickness: initial; text-decoration-style: initial; text-decoration-color: initial; float: none; display: inline !important;&quot;&gt;N&lt;/span&gt;" style="text;whiteSpace=wrap;html=1;" vertex="1" parent="1">
          <mxGeometry x="540" y="640" width="50" height="50" as="geometry" />
        </mxCell>
        <mxCell id="m9rpBUw8iEtiCOr8ePLz-131" value="&lt;font style=&quot;font-size: 15px;&quot;&gt;&lt;u&gt;Login&lt;/u&gt;&lt;/font&gt;" style="ellipse;whiteSpace=wrap;html=1;" vertex="1" parent="1">
          <mxGeometry x="620" y="580" width="40" height="30" as="geometry" />
        </mxCell>
        <mxCell id="m9rpBUw8iEtiCOr8ePLz-132" value="CPF" style="ellipse;whiteSpace=wrap;html=1;" vertex="1" parent="1">
          <mxGeometry x="670" y="580" width="40" height="30" as="geometry" />
        </mxCell>
        <mxCell id="m9rpBUw8iEtiCOr8ePLz-133" value="" style="endArrow=none;html=1;rounded=0;" edge="1" parent="1">
          <mxGeometry width="50" height="50" relative="1" as="geometry">
            <mxPoint x="690" y="650" as="sourcePoint" />
            <mxPoint x="689.5" y="610" as="targetPoint" />
          </mxGeometry>
        </mxCell>
        <mxCell id="m9rpBUw8iEtiCOr8ePLz-135" value="" style="endArrow=none;html=1;rounded=0;" edge="1" parent="1">
          <mxGeometry width="50" height="50" relative="1" as="geometry">
            <mxPoint x="664.5" y="650" as="sourcePoint" />
            <mxPoint x="665" y="280" as="targetPoint" />
          </mxGeometry>
        </mxCell>
        <mxCell id="m9rpBUw8iEtiCOr8ePLz-136" value="" style="rhombus;whiteSpace=wrap;html=1;" vertex="1" parent="1">
          <mxGeometry x="645" y="240" width="40" height="40" as="geometry" />
        </mxCell>
        <mxCell id="m9rpBUw8iEtiCOr8ePLz-137" value="" style="endArrow=none;html=1;rounded=0;entryX=1;entryY=0.833;entryDx=0;entryDy=0;entryPerimeter=0;" edge="1" parent="1" target="m9rpBUw8iEtiCOr8ePLz-11">
          <mxGeometry width="50" height="50" relative="1" as="geometry">
            <mxPoint x="610" y="200" as="sourcePoint" />
            <mxPoint x="470" y="200" as="targetPoint" />
          </mxGeometry>
        </mxCell>
        <mxCell id="m9rpBUw8iEtiCOr8ePLz-138" value="" style="endArrow=none;html=1;rounded=0;" edge="1" parent="1">
          <mxGeometry width="50" height="50" relative="1" as="geometry">
            <mxPoint x="610" y="260" as="sourcePoint" />
            <mxPoint x="610" y="200" as="targetPoint" />
          </mxGeometry>
        </mxCell>
        <mxCell id="m9rpBUw8iEtiCOr8ePLz-139" value="" style="endArrow=none;html=1;rounded=0;entryX=0.125;entryY=0.5;entryDx=0;entryDy=0;entryPerimeter=0;" edge="1" parent="1" target="m9rpBUw8iEtiCOr8ePLz-136">
          <mxGeometry width="50" height="50" relative="1" as="geometry">
            <mxPoint x="610" y="259.5" as="sourcePoint" />
            <mxPoint x="640" y="259.5" as="targetPoint" />
          </mxGeometry>
        </mxCell>
        <mxCell id="m9rpBUw8iEtiCOr8ePLz-144" value="&lt;font style=&quot;font-size: 20px;&quot;&gt;N&lt;/font&gt;" style="text;strokeColor=none;align=center;fillColor=none;html=1;verticalAlign=middle;whiteSpace=wrap;rounded=0;" vertex="1" parent="1">
          <mxGeometry x="600" y="210" width="70" height="50" as="geometry" />
        </mxCell>
        <mxCell id="m9rpBUw8iEtiCOr8ePLz-145" value="&lt;font style=&quot;font-size: 20px;&quot;&gt;N&lt;/font&gt;" style="text;strokeColor=none;align=center;fillColor=none;html=1;verticalAlign=middle;whiteSpace=wrap;rounded=0;" vertex="1" parent="1">
          <mxGeometry x="600" y="270" width="90" height="50" as="geometry" />
        </mxCell>
        <mxCell id="m9rpBUw8iEtiCOr8ePLz-146" value="" style="endArrow=none;html=1;rounded=0;" edge="1" parent="1">
          <mxGeometry width="50" height="50" relative="1" as="geometry">
            <mxPoint x="640" y="750" as="sourcePoint" />
            <mxPoint x="639.5" y="710" as="targetPoint" />
          </mxGeometry>
        </mxCell>
        <mxCell id="m9rpBUw8iEtiCOr8ePLz-147" value="&lt;span style=&quot;font-size: 15px;&quot;&gt;Data de nascimento&lt;/span&gt;" style="ellipse;whiteSpace=wrap;html=1;" vertex="1" parent="1">
          <mxGeometry x="595" y="745" width="95" height="50" as="geometry" />
        </mxCell>
        <mxCell id="m9rpBUw8iEtiCOr8ePLz-149" value="" style="endArrow=none;html=1;rounded=0;" edge="1" parent="1">
          <mxGeometry width="50" height="50" relative="1" as="geometry">
            <mxPoint x="723" y="830" as="sourcePoint" />
            <mxPoint x="723.4799999999999" y="710" as="targetPoint" />
          </mxGeometry>
        </mxCell>
        <mxCell id="m9rpBUw8iEtiCOr8ePLz-153" value="" style="rhombus;whiteSpace=wrap;html=1;" vertex="1" parent="1">
          <mxGeometry x="680" y="830" width="90" height="80" as="geometry" />
        </mxCell>
        <mxCell id="m9rpBUw8iEtiCOr8ePLz-155" value="" style="endArrow=none;html=1;rounded=0;" edge="1" parent="1">
          <mxGeometry width="50" height="50" relative="1" as="geometry">
            <mxPoint x="724.5" y="1050" as="sourcePoint" />
            <mxPoint x="724.5" y="910" as="targetPoint" />
          </mxGeometry>
        </mxCell>
        <mxCell id="m9rpBUw8iEtiCOr8ePLz-170" value="" style="endArrow=none;html=1;rounded=0;" edge="1" parent="1">
          <mxGeometry width="50" height="50" relative="1" as="geometry">
            <mxPoint x="780" y="700" as="sourcePoint" />
            <mxPoint x="740" y="700" as="targetPoint" />
          </mxGeometry>
        </mxCell>
        <mxCell id="m9rpBUw8iEtiCOr8ePLz-172" value="&lt;span style=&quot;font-size: 15px;&quot;&gt;Nome&lt;/span&gt;" style="ellipse;whiteSpace=wrap;html=1;" vertex="1" parent="1">
          <mxGeometry x="780" y="680" width="50" height="40" as="geometry" />
        </mxCell>
        <mxCell id="m9rpBUw8iEtiCOr8ePLz-173" value="" style="endArrow=none;html=1;rounded=0;" edge="1" parent="1">
          <mxGeometry width="50" height="50" relative="1" as="geometry">
            <mxPoint x="780" y="660" as="sourcePoint" />
            <mxPoint x="740" y="660" as="targetPoint" />
          </mxGeometry>
        </mxCell>
        <mxCell id="m9rpBUw8iEtiCOr8ePLz-174" value="Foto" style="ellipse;whiteSpace=wrap;html=1;" vertex="1" parent="1">
          <mxGeometry x="780" y="640" width="40" height="30" as="geometry" />
        </mxCell>
        <mxCell id="m9rpBUw8iEtiCOr8ePLz-175" value="" style="endArrow=none;html=1;rounded=0;entryX=0.5;entryY=1;entryDx=0;entryDy=0;" edge="1" parent="1" target="m9rpBUw8iEtiCOr8ePLz-176">
          <mxGeometry width="50" height="50" relative="1" as="geometry">
            <mxPoint x="739.5" y="650" as="sourcePoint" />
            <mxPoint x="739.5" y="610" as="targetPoint" />
          </mxGeometry>
        </mxCell>
        <mxCell id="m9rpBUw8iEtiCOr8ePLz-176" value="Endereço" style="ellipse;whiteSpace=wrap;html=1;" vertex="1" parent="1">
          <mxGeometry x="710" y="550" width="60" height="40" as="geometry" />
        </mxCell>
        <mxCell id="m9rpBUw8iEtiCOr8ePLz-177" value="&lt;font style=&quot;font-size: 20px;&quot;&gt;Médico&lt;br&gt;&lt;/font&gt;" style="rounded=0;whiteSpace=wrap;html=1;" vertex="1" parent="1">
          <mxGeometry x="660" y="1052.5" width="120" height="60" as="geometry" />
        </mxCell>
        <mxCell id="m9rpBUw8iEtiCOr8ePLz-178" value="" style="endArrow=none;html=1;rounded=0;" edge="1" parent="1">
          <mxGeometry width="50" height="50" relative="1" as="geometry">
            <mxPoint x="720" y="1190" as="sourcePoint" />
            <mxPoint x="720" y="1120" as="targetPoint" />
          </mxGeometry>
        </mxCell>
        <mxCell id="m9rpBUw8iEtiCOr8ePLz-179" value="" style="endArrow=none;html=1;rounded=0;" edge="1" parent="1">
          <mxGeometry width="50" height="50" relative="1" as="geometry">
            <mxPoint x="210" y="1190" as="sourcePoint" />
            <mxPoint x="720" y="1190" as="targetPoint" />
          </mxGeometry>
        </mxCell>
        <mxCell id="m9rpBUw8iEtiCOr8ePLz-180" value="" style="endArrow=none;html=1;rounded=0;" edge="1" parent="1" source="m9rpBUw8iEtiCOr8ePLz-182">
          <mxGeometry width="50" height="50" relative="1" as="geometry">
            <mxPoint x="210" y="1190" as="sourcePoint" />
            <mxPoint x="210" y="720" as="targetPoint" />
          </mxGeometry>
        </mxCell>
        <mxCell id="m9rpBUw8iEtiCOr8ePLz-181" value="" style="endArrow=none;html=1;rounded=0;" edge="1" parent="1">
          <mxGeometry width="50" height="50" relative="1" as="geometry">
            <mxPoint x="210" y="720" as="sourcePoint" />
            <mxPoint x="270" y="720" as="targetPoint" />
          </mxGeometry>
        </mxCell>
        <mxCell id="m9rpBUw8iEtiCOr8ePLz-184" value="" style="endArrow=none;html=1;rounded=0;" edge="1" parent="1" target="m9rpBUw8iEtiCOr8ePLz-182">
          <mxGeometry width="50" height="50" relative="1" as="geometry">
            <mxPoint x="210" y="1190" as="sourcePoint" />
            <mxPoint x="210" y="720" as="targetPoint" />
          </mxGeometry>
        </mxCell>
        <mxCell id="m9rpBUw8iEtiCOr8ePLz-182" value="" style="rhombus;whiteSpace=wrap;html=1;" vertex="1" parent="1">
          <mxGeometry x="190" y="910" width="40" height="40" as="geometry" />
        </mxCell>
        <mxCell id="m9rpBUw8iEtiCOr8ePLz-186" value="&lt;span style=&quot;color: rgb(0, 0, 0); font-family: Helvetica; font-size: 20px; font-style: normal; font-variant-ligatures: normal; font-variant-caps: normal; font-weight: 400; letter-spacing: normal; orphans: 2; text-align: center; text-indent: 0px; text-transform: none; widows: 2; word-spacing: 0px; -webkit-text-stroke-width: 0px; background-color: rgb(251, 251, 251); text-decoration-thickness: initial; text-decoration-style: initial; text-decoration-color: initial; float: none; display: inline !important;&quot;&gt;N&lt;/span&gt;" style="text;whiteSpace=wrap;html=1;" vertex="1" parent="1">
          <mxGeometry x="180" y="880" width="30" height="50" as="geometry" />
        </mxCell>
        <mxCell id="m9rpBUw8iEtiCOr8ePLz-187" value="&lt;span style=&quot;color: rgb(0, 0, 0); font-family: Helvetica; font-size: 20px; font-style: normal; font-variant-ligatures: normal; font-variant-caps: normal; font-weight: 400; letter-spacing: normal; orphans: 2; text-align: center; text-indent: 0px; text-transform: none; widows: 2; word-spacing: 0px; -webkit-text-stroke-width: 0px; background-color: rgb(251, 251, 251); text-decoration-thickness: initial; text-decoration-style: initial; text-decoration-color: initial; float: none; display: inline !important;&quot;&gt;N&lt;/span&gt;" style="text;whiteSpace=wrap;html=1;" vertex="1" parent="1">
          <mxGeometry x="180" y="950" width="30" height="50" as="geometry" />
        </mxCell>
        <mxCell id="m9rpBUw8iEtiCOr8ePLz-189" value="&lt;span style=&quot;font-size: 15px;&quot;&gt;Horário&lt;/span&gt;" style="ellipse;whiteSpace=wrap;html=1;" vertex="1" parent="1">
          <mxGeometry x="1020" y="850" width="50" height="40" as="geometry" />
        </mxCell>
        <mxCell id="m9rpBUw8iEtiCOr8ePLz-191" value="&lt;span style=&quot;font-size: 15px;&quot;&gt;Data&lt;/span&gt;" style="ellipse;whiteSpace=wrap;html=1;" vertex="1" parent="1">
          <mxGeometry x="915" y="930" width="50" height="40" as="geometry" />
        </mxCell>
        <mxCell id="m9rpBUw8iEtiCOr8ePLz-194" value="&lt;span style=&quot;font-size: 15px;&quot;&gt;Atestado&lt;/span&gt;" style="ellipse;whiteSpace=wrap;html=1;" vertex="1" parent="1">
          <mxGeometry x="850" y="930" width="60" height="50" as="geometry" />
        </mxCell>
        <mxCell id="m9rpBUw8iEtiCOr8ePLz-195" value="&lt;span style=&quot;font-size: 15px;&quot;&gt;&lt;u&gt;Número da consulta&lt;/u&gt;&lt;/span&gt;" style="ellipse;whiteSpace=wrap;html=1;" vertex="1" parent="1">
          <mxGeometry x="850" y="730" width="75" height="60" as="geometry" />
        </mxCell>
        <mxCell id="m9rpBUw8iEtiCOr8ePLz-197" value="&lt;span style=&quot;color: rgb(0, 0, 0); font-family: Helvetica; font-size: 20px; font-style: normal; font-variant-ligatures: normal; font-variant-caps: normal; font-weight: 400; letter-spacing: normal; orphans: 2; text-align: center; text-indent: 0px; text-transform: none; widows: 2; word-spacing: 0px; -webkit-text-stroke-width: 0px; background-color: rgb(251, 251, 251); text-decoration-thickness: initial; text-decoration-style: initial; text-decoration-color: initial; float: none; display: inline !important;&quot;&gt;N&lt;/span&gt;" style="text;whiteSpace=wrap;html=1;" vertex="1" parent="1">
          <mxGeometry x="730" y="910" width="50" height="50" as="geometry" />
        </mxCell>
        <mxCell id="m9rpBUw8iEtiCOr8ePLz-199" value="" style="endArrow=none;html=1;rounded=0;" edge="1" parent="1">
          <mxGeometry width="50" height="50" relative="1" as="geometry">
            <mxPoint x="770" y="1052.5" as="sourcePoint" />
            <mxPoint x="770" y="982.5" as="targetPoint" />
          </mxGeometry>
        </mxCell>
        <mxCell id="m9rpBUw8iEtiCOr8ePLz-200" value="&lt;font style=&quot;font-size: 15px;&quot;&gt;&lt;u&gt;Login&lt;/u&gt;&lt;/font&gt;" style="ellipse;whiteSpace=wrap;html=1;" vertex="1" parent="1">
          <mxGeometry x="750" y="960" width="40" height="30" as="geometry" />
        </mxCell>
        <mxCell id="m9rpBUw8iEtiCOr8ePLz-201" value="&lt;span style=&quot;font-size: 15px;&quot;&gt;Nome&lt;/span&gt;" style="ellipse;whiteSpace=wrap;html=1;" vertex="1" parent="1">
          <mxGeometry x="810" y="1060" width="40" height="30" as="geometry" />
        </mxCell>
        <mxCell id="m9rpBUw8iEtiCOr8ePLz-202" value="" style="endArrow=none;html=1;rounded=0;" edge="1" parent="1">
          <mxGeometry width="50" height="50" relative="1" as="geometry">
            <mxPoint x="620" y="1069" as="sourcePoint" />
            <mxPoint x="660" y="1069" as="targetPoint" />
          </mxGeometry>
        </mxCell>
        <mxCell id="m9rpBUw8iEtiCOr8ePLz-203" value="" style="endArrow=none;html=1;rounded=0;entryX=0.958;entryY=0.958;entryDx=0;entryDy=0;entryPerimeter=0;" edge="1" parent="1" target="m9rpBUw8iEtiCOr8ePLz-177">
          <mxGeometry width="50" height="50" relative="1" as="geometry">
            <mxPoint x="774.5" y="1137.5" as="sourcePoint" />
            <mxPoint x="775" y="1120" as="targetPoint" />
          </mxGeometry>
        </mxCell>
        <mxCell id="m9rpBUw8iEtiCOr8ePLz-205" value="" style="endArrow=none;html=1;rounded=0;entryX=0;entryY=0.5;entryDx=0;entryDy=0;" edge="1" parent="1" target="m9rpBUw8iEtiCOr8ePLz-201">
          <mxGeometry width="50" height="50" relative="1" as="geometry">
            <mxPoint x="780" y="1075" as="sourcePoint" />
            <mxPoint x="820" y="1074.5" as="targetPoint" />
          </mxGeometry>
        </mxCell>
        <mxCell id="m9rpBUw8iEtiCOr8ePLz-206" value="&lt;span style=&quot;font-size: 15px;&quot;&gt;Contrato&lt;/span&gt;" style="ellipse;whiteSpace=wrap;html=1;" vertex="1" parent="1">
          <mxGeometry x="740" y="1140" width="70" height="40" as="geometry" />
        </mxCell>
        <mxCell id="m9rpBUw8iEtiCOr8ePLz-208" value="&lt;span style=&quot;font-size: 15px;&quot;&gt;CPF&lt;/span&gt;" style="ellipse;whiteSpace=wrap;html=1;" vertex="1" parent="1">
          <mxGeometry x="580" y="1052.5" width="40" height="30" as="geometry" />
        </mxCell>
        <mxCell id="m9rpBUw8iEtiCOr8ePLz-209" value="&lt;span style=&quot;font-size: 15px;&quot;&gt;Email&lt;/span&gt;" style="ellipse;whiteSpace=wrap;html=1;" vertex="1" parent="1">
          <mxGeometry x="580" y="1090" width="50" height="30" as="geometry" />
        </mxCell>
        <mxCell id="m9rpBUw8iEtiCOr8ePLz-211" value="" style="endArrow=none;html=1;rounded=0;" edge="1" parent="1">
          <mxGeometry width="50" height="50" relative="1" as="geometry">
            <mxPoint x="630" y="1105" as="sourcePoint" />
            <mxPoint x="660" y="1104.5" as="targetPoint" />
          </mxGeometry>
        </mxCell>
        <mxCell id="m9rpBUw8iEtiCOr8ePLz-212" value="" style="endArrow=none;html=1;rounded=0;" edge="1" parent="1">
          <mxGeometry width="50" height="50" relative="1" as="geometry">
            <mxPoint x="677" y="1150" as="sourcePoint" />
            <mxPoint x="677" y="1120" as="targetPoint" />
          </mxGeometry>
        </mxCell>
        <mxCell id="m9rpBUw8iEtiCOr8ePLz-213" value="&lt;span style=&quot;font-size: 15px;&quot;&gt;CRM&lt;/span&gt;" style="ellipse;whiteSpace=wrap;html=1;" vertex="1" parent="1">
          <mxGeometry x="657.5" y="1145" width="40" height="30" as="geometry" />
        </mxCell>
        <mxCell id="m9rpBUw8iEtiCOr8ePLz-214" value="&lt;span style=&quot;font-size: 15px;&quot;&gt;Foto&lt;/span&gt;" style="ellipse;whiteSpace=wrap;html=1;" vertex="1" parent="1">
          <mxGeometry x="660" y="1000" width="40" height="30" as="geometry" />
        </mxCell>
        <mxCell id="m9rpBUw8iEtiCOr8ePLz-215" value="" style="endArrow=none;html=1;rounded=0;" edge="1" parent="1">
          <mxGeometry width="50" height="50" relative="1" as="geometry">
            <mxPoint x="679" y="1052.5" as="sourcePoint" />
            <mxPoint x="679" y="1030" as="targetPoint" />
          </mxGeometry>
        </mxCell>
        <mxCell id="-1LH9voUxVbHBseu-ebn-5" value="" style="endArrow=none;html=1;rounded=0;" edge="1" parent="1">
          <mxGeometry width="50" height="50" relative="1" as="geometry">
            <mxPoint x="770" y="867.5" as="sourcePoint" />
            <mxPoint x="860" y="868" as="targetPoint" />
            <Array as="points" />
          </mxGeometry>
        </mxCell>
        <mxCell id="-1LH9voUxVbHBseu-ebn-7" value="" style="endArrow=none;html=1;rounded=0;" edge="1" parent="1">
          <mxGeometry width="50" height="50" relative="1" as="geometry">
            <mxPoint x="980" y="189" as="sourcePoint" />
            <mxPoint x="1090" y="190" as="targetPoint" />
            <Array as="points" />
          </mxGeometry>
        </mxCell>
        <mxCell id="-1LH9voUxVbHBseu-ebn-10" value="&lt;span style=&quot;font-size: 15px;&quot;&gt;Preço&lt;/span&gt;" style="ellipse;whiteSpace=wrap;html=1;" vertex="1" parent="1">
          <mxGeometry x="1090" y="170" width="50" height="40" as="geometry" />
        </mxCell>
        <mxCell id="-1LH9voUxVbHBseu-ebn-11" value="Nome" style="ellipse;whiteSpace=wrap;html=1;" vertex="1" parent="1">
          <mxGeometry x="365" y="100" width="40" height="30" as="geometry" />
        </mxCell>
        <mxCell id="-1LH9voUxVbHBseu-ebn-12" value="" style="endArrow=none;html=1;rounded=0;entryX=0.5;entryY=1;entryDx=0;entryDy=0;" edge="1" parent="1" target="-1LH9voUxVbHBseu-ebn-11">
          <mxGeometry width="50" height="50" relative="1" as="geometry">
            <mxPoint x="384.5" y="150" as="sourcePoint" />
            <mxPoint x="384.5" y="100" as="targetPoint" />
          </mxGeometry>
        </mxCell>
        <mxCell id="-1LH9voUxVbHBseu-ebn-13" value="" style="endArrow=none;html=1;rounded=0;" edge="1" parent="1">
          <mxGeometry width="50" height="50" relative="1" as="geometry">
            <mxPoint x="438.5" y="150" as="sourcePoint" />
            <mxPoint x="438.5" y="130" as="targetPoint" />
            <Array as="points" />
          </mxGeometry>
        </mxCell>
        <mxCell id="-1LH9voUxVbHBseu-ebn-15" value="&lt;font style=&quot;font-size: 14px;&quot;&gt;Contrato&lt;/font&gt;" style="ellipse;whiteSpace=wrap;html=1;" vertex="1" parent="1">
          <mxGeometry x="414" y="98.75" width="50" height="32.5" as="geometry" />
        </mxCell>
        <mxCell id="-1LH9voUxVbHBseu-ebn-17" value="" style="endArrow=none;html=1;rounded=0;" edge="1" parent="1">
          <mxGeometry width="50" height="50" relative="1" as="geometry">
            <mxPoint x="300" y="160" as="sourcePoint" />
            <mxPoint x="330" y="160" as="targetPoint" />
          </mxGeometry>
        </mxCell>
        <mxCell id="-1LH9voUxVbHBseu-ebn-18" value="Telefone" style="ellipse;whiteSpace=wrap;html=1;" vertex="1" parent="1">
          <mxGeometry x="255" y="140" width="50" height="40" as="geometry" />
        </mxCell>
        <mxCell id="-1LH9voUxVbHBseu-ebn-20" value="&lt;font style=&quot;font-size: 20px;&quot;&gt;Consulta&lt;br&gt;&lt;/font&gt;" style="rounded=0;whiteSpace=wrap;html=1;" vertex="1" parent="1">
          <mxGeometry x="860" y="840" width="120" height="60" as="geometry" />
        </mxCell>
        <mxCell id="-1LH9voUxVbHBseu-ebn-21" value="" style="endArrow=none;html=1;rounded=0;" edge="1" parent="1">
          <mxGeometry width="50" height="50" relative="1" as="geometry">
            <mxPoint x="879.5" y="930" as="sourcePoint" />
            <mxPoint x="879.5" y="900" as="targetPoint" />
          </mxGeometry>
        </mxCell>
        <mxCell id="-1LH9voUxVbHBseu-ebn-23" value="" style="endArrow=none;html=1;rounded=0;" edge="1" parent="1">
          <mxGeometry width="50" height="50" relative="1" as="geometry">
            <mxPoint x="940" y="930" as="sourcePoint" />
            <mxPoint x="940" y="900" as="targetPoint" />
          </mxGeometry>
        </mxCell>
        <mxCell id="-1LH9voUxVbHBseu-ebn-24" value="" style="endArrow=none;html=1;rounded=0;entryX=0.5;entryY=1;entryDx=0;entryDy=0;" edge="1" parent="1" target="m9rpBUw8iEtiCOr8ePLz-195">
          <mxGeometry width="50" height="50" relative="1" as="geometry">
            <mxPoint x="887" y="840" as="sourcePoint" />
            <mxPoint x="887" y="810" as="targetPoint" />
          </mxGeometry>
        </mxCell>
        <mxCell id="-1LH9voUxVbHBseu-ebn-25" value="" style="endArrow=none;html=1;rounded=0;" edge="1" parent="1">
          <mxGeometry width="50" height="50" relative="1" as="geometry">
            <mxPoint x="980" y="869.5" as="sourcePoint" />
            <mxPoint x="1020" y="870" as="targetPoint" />
          </mxGeometry>
        </mxCell>
        <mxCell id="-1LH9voUxVbHBseu-ebn-26" value="" style="endArrow=none;html=1;rounded=0;" edge="1" parent="1">
          <mxGeometry width="50" height="50" relative="1" as="geometry">
            <mxPoint x="969.5" y="840" as="sourcePoint" />
            <mxPoint x="969.5" y="810" as="targetPoint" />
          </mxGeometry>
        </mxCell>
        <mxCell id="-1LH9voUxVbHBseu-ebn-28" value="&lt;span style=&quot;font-size: 15px;&quot;&gt;Histórico&lt;/span&gt;" style="ellipse;whiteSpace=wrap;html=1;" vertex="1" parent="1">
          <mxGeometry x="940" y="750" width="60" height="60" as="geometry" />
        </mxCell>
        <mxCell id="-1LH9voUxVbHBseu-ebn-31" value="" style="endArrow=none;html=1;rounded=0;" edge="1" parent="1">
          <mxGeometry width="50" height="50" relative="1" as="geometry">
            <mxPoint x="100" y="930" as="sourcePoint" />
            <mxPoint x="190" y="930" as="targetPoint" />
          </mxGeometry>
        </mxCell>
        <mxCell id="-1LH9voUxVbHBseu-ebn-32" value="&lt;font style=&quot;font-size: 20px;&quot;&gt;Expediente&lt;br&gt;&lt;/font&gt;" style="rounded=0;whiteSpace=wrap;html=1;" vertex="1" parent="1">
          <mxGeometry x="-20" y="905" width="120" height="60" as="geometry" />
        </mxCell>
        <mxCell id="-1LH9voUxVbHBseu-ebn-33" value="" style="endArrow=none;html=1;rounded=0;" edge="1" parent="1">
          <mxGeometry width="50" height="50" relative="1" as="geometry">
            <mxPoint x="90" y="1010" as="sourcePoint" />
            <mxPoint x="90" y="965" as="targetPoint" />
          </mxGeometry>
        </mxCell>
        <mxCell id="-1LH9voUxVbHBseu-ebn-38" value="" style="endArrow=none;html=1;rounded=0;" edge="1" parent="1">
          <mxGeometry width="50" height="50" relative="1" as="geometry">
            <mxPoint y="1015" as="sourcePoint" />
            <mxPoint y="970" as="targetPoint" />
          </mxGeometry>
        </mxCell>
        <mxCell id="-1LH9voUxVbHBseu-ebn-39" value="" style="endArrow=none;html=1;rounded=0;" edge="1" parent="1">
          <mxGeometry width="50" height="50" relative="1" as="geometry">
            <mxPoint x="44.5" y="905" as="sourcePoint" />
            <mxPoint x="44.5" y="860" as="targetPoint" />
          </mxGeometry>
        </mxCell>
        <mxCell id="-1LH9voUxVbHBseu-ebn-40" value="Ínicio" style="ellipse;whiteSpace=wrap;html=1;" vertex="1" parent="1">
          <mxGeometry x="60" y="1010" width="50" height="40" as="geometry" />
        </mxCell>
        <mxCell id="-1LH9voUxVbHBseu-ebn-41" value="Fim" style="ellipse;whiteSpace=wrap;html=1;" vertex="1" parent="1">
          <mxGeometry x="-20" y="1012.5" width="50" height="40" as="geometry" />
        </mxCell>
        <mxCell id="-1LH9voUxVbHBseu-ebn-43" value="" style="ellipse;whiteSpace=wrap;html=1;" vertex="1" parent="1">
          <mxGeometry x="20" y="820" width="50" height="40" as="geometry" />
        </mxCell>
        <mxCell id="-1LH9voUxVbHBseu-ebn-51" value="Dias" style="ellipse;whiteSpace=wrap;html=1;" vertex="1" parent="1">
          <mxGeometry x="25" y="825" width="40" height="30" as="geometry" />
        </mxCell>
        <mxCell id="Je-nwDnF2Fgm8EsdFL9t-1" value="" style="endArrow=none;html=1;rounded=0;exitX=1;exitY=1;exitDx=0;exitDy=0;" edge="1" parent="1">
          <mxGeometry width="50" height="50" relative="1" as="geometry">
            <mxPoint x="780" y="1104.5" as="sourcePoint" />
            <mxPoint x="869" y="1104.5" as="targetPoint" />
          </mxGeometry>
        </mxCell>
        <mxCell id="Je-nwDnF2Fgm8EsdFL9t-2" value="Especialização" style="ellipse;whiteSpace=wrap;html=1;" vertex="1" parent="1">
          <mxGeometry x="865" y="1082.5" width="85" height="45" as="geometry" />
        </mxCell>
      </root>
    </mxGraphModel>
  </diagram>
</mxfile>
